<svg width="29" height="34" viewBox="0 0 29 34" fill="none" xmlns="http://www.w3.org/2000/svg">
<path d="M16.3455 18.1673C15.3726 18.1673 14.5456 17.8268 13.8645 17.1458C13.1835 16.4647 12.843 15.6378 12.843 14.6648C12.843 13.6919 13.1835 12.8649 13.8645 12.1839C14.5456 11.5029 15.3726 11.1623 16.3455 11.1623C17.3184 11.1623 18.1454 11.5029 18.8264 12.1839C19.5075 12.8649 19.848 13.6919 19.848 14.6648C19.848 15.6378 19.5075 16.4647 18.8264 17.1458C18.1454 17.8268 17.3184 18.1673 16.3455 18.1673ZM8.17297 21.6698C7.53084 21.6698 6.98115 21.4412 6.52388 20.9839C6.0666 20.5267 5.83797 19.977 5.83797 19.3348V9.99484C5.83797 9.35272 6.0666 8.80302 6.52388 8.34575C6.98115 7.88848 7.53084 7.65984 8.17297 7.65984H24.518C25.1601 7.65984 25.7098 7.88848 26.1671 8.34575C26.6243 8.80302 26.853 9.35272 26.853 9.99484V19.3348C26.853 19.977 26.6243 20.5267 26.1671 20.9839C25.7098 21.4412 25.1601 21.6698 24.518 21.6698H8.17297ZM10.508 19.3348H22.183C22.183 18.6927 22.4116 18.143 22.8689 17.6858C23.3261 17.2285 23.8758 16.9998 24.518 16.9998V12.3298C23.8758 12.3298 23.3261 12.1012 22.8689 11.6439C22.4116 11.1867 22.183 10.637 22.183 9.99484H16.3455H10.508C10.508 10.637 10.2793 11.1867 9.82206 11.6439C9.36479 12.1012 8.81509 12.3298 8.17297 12.3298V16.9998C8.81509 16.9998 9.36479 17.2285 9.82206 17.6858C10.2793 18.143 10.508 18.6927 10.508 19.3348ZM23.3505 26.3398H3.50297C2.86084 26.3398 2.31115 26.1112 1.85388 25.6539C1.3966 25.1967 1.16797 24.647 1.16797 24.0048V11.1623H3.50297V24.0048H23.3505V26.3398Z" fill="#93DE01"/>
</svg>
