<svg width="24" height="24" viewBox="0 0 24 24" fill="none" xmlns="http://www.w3.org/2000/svg">
<path d="M7.09091 10.6386H16.9091C17.1261 10.6386 17.3342 10.5535 17.4876 10.402C17.6411 10.2506 17.7273 10.0451 17.7273 9.8309V4.98475C17.7273 4.77054 17.6411 4.5651 17.4876 4.41363C17.3342 4.26215 17.1261 4.17706 16.9091 4.17706H7.09091C6.87391 4.17706 6.66581 4.26215 6.51237 4.41363C6.35893 4.5651 6.27273 4.77054 6.27273 4.98475V9.8309C6.27273 10.0451 6.35893 10.2506 6.51237 10.402C6.66581 10.5535 6.87391 10.6386 7.09091 10.6386ZM7.90909 5.79244H16.0909V9.02321H7.90909V5.79244ZM19.3636 0.946289H4.63636C4.20237 0.946289 3.78616 1.11648 3.47928 1.41942C3.1724 1.72237 3 2.13325 3 2.56167V20.3309C3 20.7593 3.1724 21.1702 3.47928 21.4732C3.78616 21.7761 4.20237 21.9463 4.63636 21.9463H19.3636C19.7976 21.9463 20.2138 21.7761 20.5207 21.4732C20.8276 21.1702 21 20.7593 21 20.3309V2.56167C21 2.13325 20.8276 1.72237 20.5207 1.41942C20.2138 1.11648 19.7976 0.946289 19.3636 0.946289ZM19.3636 20.3309H4.63636V2.56167H19.3636V20.3309ZM9.13636 13.4655C9.13636 13.7051 9.06439 13.9394 8.92953 14.1386C8.79468 14.3379 8.603 14.4931 8.37875 14.5848C8.15449 14.6765 7.90773 14.7005 7.66966 14.6538C7.43159 14.607 7.21292 14.4916 7.04128 14.3222C6.86964 14.1528 6.75275 13.9369 6.7054 13.7019C6.65805 13.4669 6.68235 13.2233 6.77524 13.0019C6.86813 12.7805 7.02543 12.5913 7.22726 12.4582C7.42908 12.325 7.66636 12.254 7.90909 12.254C8.23458 12.254 8.54675 12.3816 8.7769 12.6088C9.00706 12.836 9.13636 13.1442 9.13636 13.4655ZM13.2273 13.4655C13.2273 13.7051 13.1553 13.9394 13.0204 14.1386C12.8856 14.3379 12.6939 14.4931 12.4697 14.5848C12.2454 14.6765 11.9986 14.7005 11.7606 14.6538C11.5225 14.607 11.3038 14.4916 11.1322 14.3222C10.9606 14.1528 10.8437 13.9369 10.7963 13.7019C10.749 13.4669 10.7733 13.2233 10.8661 13.0019C10.959 12.7805 11.1163 12.5913 11.3182 12.4582C11.52 12.325 11.7573 12.254 12 12.254C12.3255 12.254 12.6377 12.3816 12.8678 12.6088C13.098 12.836 13.2273 13.1442 13.2273 13.4655ZM17.3182 13.4655C17.3182 13.7051 17.2462 13.9394 17.1113 14.1386C16.9765 14.3379 16.7848 14.4931 16.5606 14.5848C16.3363 14.6765 16.0895 14.7005 15.8515 14.6538C15.6134 14.607 15.3947 14.4916 15.2231 14.3222C15.0515 14.1528 14.9346 13.9369 14.8872 13.7019C14.8399 13.4669 14.8642 13.2233 14.9571 13.0019C15.0499 12.7805 15.2072 12.5913 15.4091 12.4582C15.6109 12.325 15.8482 12.254 16.0909 12.254C16.4164 12.254 16.7286 12.3816 16.9587 12.6088C17.1889 12.836 17.3182 13.1442 17.3182 13.4655ZM9.13636 17.504C9.13636 17.7436 9.06439 17.9778 8.92953 18.1771C8.79468 18.3763 8.603 18.5316 8.37875 18.6233C8.15449 18.715 7.90773 18.739 7.66966 18.6922C7.43159 18.6455 7.21292 18.5301 7.04128 18.3607C6.86964 18.1912 6.75275 17.9754 6.7054 17.7403C6.65805 17.5053 6.68235 17.2617 6.77524 17.0403C6.86813 16.819 7.02543 16.6298 7.22726 16.4966C7.42908 16.3635 7.66636 16.2924 7.90909 16.2924C8.23458 16.2924 8.54675 16.4201 8.7769 16.6473C9.00706 16.8745 9.13636 17.1827 9.13636 17.504ZM13.2273 17.504C13.2273 17.7436 13.1553 17.9778 13.0204 18.1771C12.8856 18.3763 12.6939 18.5316 12.4697 18.6233C12.2454 18.715 11.9986 18.739 11.7606 18.6922C11.5225 18.6455 11.3038 18.5301 11.1322 18.3607C10.9606 18.1912 10.8437 17.9754 10.7963 17.7403C10.749 17.5053 10.7733 17.2617 10.8661 17.0403C10.959 16.819 11.1163 16.6298 11.3182 16.4966C11.52 16.3635 11.7573 16.2924 12 16.2924C12.3255 16.2924 12.6377 16.4201 12.8678 16.6473C13.098 16.8745 13.2273 17.1827 13.2273 17.504ZM17.3182 17.504C17.3182 17.7436 17.2462 17.9778 17.1113 18.1771C16.9765 18.3763 16.7848 18.5316 16.5606 18.6233C16.3363 18.715 16.0895 18.739 15.8515 18.6922C15.6134 18.6455 15.3947 18.5301 15.2231 18.3607C15.0515 18.1912 14.9346 17.9754 14.8872 17.7403C14.8399 17.5053 14.8642 17.2617 14.9571 17.0403C15.0499 16.819 15.2072 16.6298 15.4091 16.4966C15.6109 16.3635 15.8482 16.2924 16.0909 16.2924C16.4164 16.2924 16.7286 16.4201 16.9587 16.6473C17.1889 16.8745 17.3182 17.1827 17.3182 17.504Z" fill="#03111C"/>
</svg>
