<svg width="24" height="24" viewBox="0 0 24 24" fill="none" xmlns="http://www.w3.org/2000/svg">
<path d="M7.49512 2.44824C9.32951 1.70403 11.3431 1.51683 13.2832 1.91016C15.1021 2.27894 16.7816 3.14229 18.1377 4.40234L18.4043 4.65918L18.4053 4.66016C19.0487 5.3115 19.6304 5.94163 20.1953 6.58496V5.17285C20.1953 4.9097 20.3002 4.65678 20.4863 4.4707C20.6724 4.28486 20.9245 4.18068 21.1875 4.18066C21.4507 4.18066 21.7036 4.28463 21.8896 4.4707C22.0757 4.65677 22.1797 4.90973 22.1797 5.17285V9.2998C22.1797 9.56273 22.0754 9.81496 21.8896 10.001C21.7036 10.1871 21.4507 10.292 21.1875 10.292H17.0605C16.7974 10.292 16.5445 10.1871 16.3584 10.001C16.1726 9.81496 16.0684 9.56273 16.0684 9.2998C16.0684 9.03666 16.1723 8.78373 16.3584 8.59766C16.5445 8.41158 16.7974 8.30762 17.0605 8.30762H19.0684C18.4076 7.54241 17.744 6.80983 16.9971 6.05371V6.05273C15.8728 4.93065 14.4427 4.16427 12.8857 3.84961C11.3282 3.53489 9.7124 3.68619 8.24023 4.28418C6.76802 4.88221 5.50428 5.90114 4.60742 7.21289C3.71074 8.52457 3.22023 10.0714 3.19727 11.6602C3.17431 13.249 3.62 14.8094 4.47852 16.1465C5.3371 17.4836 6.57104 18.5384 8.02539 19.1787C9.47965 19.8189 11.0903 20.0167 12.6562 19.7471C14.2222 19.4774 15.6737 18.7519 16.8301 17.6621C16.9247 17.5727 17.0366 17.5035 17.1582 17.457C17.2799 17.4106 17.4098 17.388 17.54 17.3916C17.6704 17.3953 17.799 17.4252 17.918 17.4785C18.037 17.5318 18.1448 17.6074 18.2344 17.7021C18.3239 17.7969 18.3939 17.9085 18.4404 18.0303C18.4869 18.152 18.5085 18.2819 18.5049 18.4121C18.5012 18.5424 18.4722 18.6711 18.4189 18.79C18.3657 18.9091 18.2891 19.0169 18.1943 19.1064C16.7546 20.465 14.9458 21.3692 12.9951 21.7061C11.0447 22.0427 9.03832 21.797 7.22656 21C5.41456 20.2028 3.87739 18.8893 2.80762 17.2236C1.73786 15.558 1.1822 13.6141 1.21094 11.6348C1.23968 9.65553 1.85122 7.72853 2.96875 6.09473C4.08635 4.46098 5.66093 3.19248 7.49512 2.44824Z" fill="black" stroke="black" stroke-width="0.333606"/>
</svg>
