<svg width="24" height="24" viewBox="0 0 24 24" fill="none" xmlns="http://www.w3.org/2000/svg">
<path d="M15.4136 16.0539L16.7205 14.747L13.2665 11.2931V6.99896H11.3995V12.0399L15.4136 16.0539ZM12.333 21.0015C11.0417 21.0015 9.82816 20.7564 8.6924 20.2663C7.55664 19.7762 6.56868 19.1111 5.72853 18.271C4.88838 17.4308 4.22327 16.4429 3.73318 15.3071C3.24309 14.1714 2.99805 12.9578 2.99805 11.6665C2.99805 10.3751 3.24309 9.16157 3.73318 8.02582C4.22327 6.89006 4.88838 5.9021 5.72853 5.06195C6.56868 4.2218 7.55664 3.55668 8.6924 3.0666C9.82816 2.57651 11.0417 2.33146 12.333 2.33146C13.6244 2.33146 14.8379 2.57651 15.9737 3.0666C17.1095 3.55668 18.0974 4.2218 18.9376 5.06195C19.7777 5.9021 20.4428 6.89006 20.9329 8.02582C21.423 9.16157 21.668 10.3751 21.668 11.6665C21.668 12.9578 21.423 14.1714 20.9329 15.3071C20.4428 16.4429 19.7777 17.4308 18.9376 18.271C18.0974 19.1111 17.1095 19.7762 15.9737 20.2663C14.8379 20.7564 13.6244 21.0015 12.333 21.0015ZM12.333 19.1345C14.4023 19.1345 16.1643 18.4071 17.619 16.9524C19.0737 15.4977 19.801 13.7357 19.801 11.6665C19.801 9.59721 19.0737 7.83523 17.619 6.38052C16.1643 4.92582 14.4023 4.19847 12.333 4.19847C10.2638 4.19847 8.50181 4.92582 7.0471 6.38052C5.5924 7.83523 4.86505 9.59721 4.86505 11.6665C4.86505 13.7357 5.5924 15.4977 7.0471 16.9524C8.50181 18.4071 10.2638 19.1345 12.333 19.1345Z" fill="#03111C"/>
</svg>
