<svg width="32" height="32" viewBox="0 0 32 32" fill="none" xmlns="http://www.w3.org/2000/svg">
<path d="M21.0009 6.99759C22.062 6.99759 23.0797 7.41912 23.83 8.16947C24.5804 8.91981 25.0019 9.9375 25.0019 10.9986M29.003 10.9986C29.0032 12.1658 28.748 13.3188 28.2555 14.3769C27.7629 15.435 27.0449 16.3726 26.1517 17.1238C25.2585 17.8751 24.2117 18.4219 23.0849 18.7258C21.958 19.0298 20.7783 19.0836 19.6285 18.8834C18.8776 18.754 18.0828 18.9181 17.5439 19.4569L13.999 23.0018H10.9982V26.0026H7.99742V29.0034H2.99609V25.2451C2.99609 24.4489 3.31218 23.6847 3.87499 23.1232L12.5426 14.4556C13.0814 13.9168 13.2455 13.1219 13.1161 12.371C12.927 11.2789 12.9668 10.1595 13.233 9.08361C13.4992 8.00773 13.986 6.99888 14.6625 6.12099C15.339 5.2431 16.1905 4.51532 17.1631 3.98377C18.1356 3.45222 19.208 3.12849 20.3122 3.03311C21.4164 2.93772 22.5284 3.07276 23.5777 3.42965C24.627 3.78655 25.5907 4.35752 26.4077 5.10639C27.2248 5.85526 27.8774 6.76569 28.3241 7.77999C28.7709 8.79428 29.002 9.89032 29.003 10.9986Z" stroke="white" stroke-width="1.625" stroke-linecap="round" stroke-linejoin="round"/>
</svg>
