<svg width="20" height="24" viewBox="0 0 20 24" fill="none" xmlns="http://www.w3.org/2000/svg">
<path d="M6.66732 18.6668H13.334V16.1668C13.334 15.2502 13.0076 14.4654 12.3548 13.8127C11.702 13.1599 10.9173 12.8335 10.0007 12.8335C9.08398 12.8335 8.29926 13.1599 7.64648 13.8127C6.99371 14.4654 6.66732 15.2502 6.66732 16.1668V18.6668ZM10.0007 11.1668C10.9173 11.1668 11.702 10.8404 12.3548 10.1877C13.0076 9.53488 13.334 8.75016 13.334 7.83349V5.33349H6.66732V7.83349C6.66732 8.75016 6.99371 9.53488 7.64648 10.1877C8.29926 10.8404 9.08398 11.1668 10.0007 11.1668ZM3.33398 20.3335V18.6668H5.00065V16.1668C5.00065 15.3196 5.19857 14.5245 5.5944 13.7814C5.99023 13.0384 6.54232 12.4446 7.25065 12.0002C6.54232 11.5557 5.99023 10.962 5.5944 10.2189C5.19857 9.47586 5.00065 8.68072 5.00065 7.83349V5.33349H3.33398V3.66683H16.6673V5.33349H15.0007V7.83349C15.0007 8.68072 14.8027 9.47586 14.4069 10.2189C14.0111 10.962 13.459 11.5557 12.7507 12.0002C13.459 12.4446 14.0111 13.0384 14.4069 13.7814C14.8027 14.5245 15.0007 15.3196 15.0007 16.1668V18.6668H16.6673V20.3335H3.33398Z" fill="#9CA3AF"/>
</svg>
