<svg width="7" height="11" viewBox="0 0 7 11" fill="none" xmlns="http://www.w3.org/2000/svg">
<path d="M5.34277 10.5C5.17405 10.5 5.01194 10.4327 4.89258 10.3135L0.371094 5.79199C0.311939 5.7329 0.265418 5.6622 0.233399 5.58496C0.201456 5.5078 0.184577 5.4253 0.184571 5.3418C0.184571 5.25817 0.201375 5.17491 0.233399 5.09766C0.249349 5.05927 0.269004 5.02268 0.291993 4.98828L0.371094 4.8916L4.89258 0.370117C4.95158 0.311161 5.0216 0.264377 5.09863 0.232422C5.17587 0.20043 5.25918 0.183594 5.34277 0.183594C5.42624 0.183624 5.50882 0.200499 5.58594 0.232422C5.66317 0.264413 5.73385 0.311002 5.79297 0.370117C5.85206 0.42922 5.89868 0.499938 5.93066 0.577148C5.96257 0.654267 5.97948 0.736856 5.97949 0.820313C5.97949 0.90391 5.96266 0.987218 5.93066 1.06445C5.89871 1.14147 5.85191 1.21152 5.79297 1.27051L1.72168 5.3418L5.79297 9.41309C5.91221 9.53245 5.97949 9.69456 5.97949 9.86328C5.97943 10.032 5.9123 10.1941 5.79297 10.3135C5.67364 10.4328 5.51152 10.4999 5.34277 10.5Z" fill="#9BA2AE" stroke="#9BA2AE" stroke-width="0.368421"/>
</svg>
