<svg width="25" height="28" viewBox="0 0 25 28" fill="none" xmlns="http://www.w3.org/2000/svg">
<path d="M6.17687 23.7222C5.64214 23.7222 5.18439 23.5318 4.8036 23.151C4.42282 22.7702 4.23242 22.3124 4.23242 21.7777V12.0555C4.23242 11.5208 4.42282 11.063 4.8036 10.6822C5.18439 10.3014 5.64214 10.1111 6.17687 10.1111H7.14909V8.16661C7.14909 6.8217 7.62305 5.67529 8.57096 4.72738C9.51888 3.77946 10.6653 3.3055 12.0102 3.3055C13.3551 3.3055 14.5015 3.77946 15.4494 4.72738C16.3974 5.67529 16.8713 6.8217 16.8713 8.16661V10.1111H17.8435C18.3783 10.1111 18.836 10.3014 19.2168 10.6822C19.5976 11.063 19.788 11.5208 19.788 12.0555V21.7777C19.788 22.3124 19.5976 22.7702 19.2168 23.151C18.836 23.5318 18.3783 23.7222 17.8435 23.7222H6.17687ZM6.17687 21.7777H17.8435V12.0555H6.17687V21.7777ZM12.0102 18.8611C12.5449 18.8611 13.0027 18.6707 13.3835 18.2899C13.7643 17.9091 13.9546 17.4513 13.9546 16.9166C13.9546 16.3819 13.7643 15.9241 13.3835 15.5433C13.0027 15.1626 12.5449 14.9722 12.0102 14.9722C11.4755 14.9722 11.0177 15.1626 10.6369 15.5433C10.2561 15.9241 10.0658 16.3819 10.0658 16.9166C10.0658 17.4513 10.2561 17.9091 10.6369 18.2899C11.0177 18.6707 11.4755 18.8611 12.0102 18.8611ZM9.09353 10.1111H14.9269V8.16661C14.9269 7.35643 14.6433 6.66777 14.0762 6.10064C13.509 5.53351 12.8204 5.24994 12.0102 5.24994C11.2 5.24994 10.5114 5.53351 9.94423 6.10064C9.3771 6.66777 9.09353 7.35643 9.09353 8.16661V10.1111Z" fill="white"/>
</svg>
