<svg width="32" height="32" viewBox="0 0 32 32" fill="none" xmlns="http://www.w3.org/2000/svg">
<path d="M29.0718 16.4993H12.2001M6.24478 16.4993H3.80859M6.24478 16.4993C6.24478 15.7098 6.55842 14.9526 7.11671 14.3943C7.675 13.836 8.4322 13.5224 9.22174 13.5224C10.0113 13.5224 10.7685 13.836 11.3268 14.3943C11.8851 14.9526 12.1987 15.7098 12.1987 16.4993C12.1987 17.2889 11.8851 18.0461 11.3268 18.6043C10.7685 19.1626 10.0113 19.4763 9.22174 19.4763C8.4322 19.4763 7.675 19.1626 7.11671 18.6043C6.55842 18.0461 6.24478 17.2889 6.24478 16.4993ZM29.0718 25.5217H21.2224M21.2224 25.5217C21.2224 26.3114 20.908 27.0695 20.3496 27.6279C19.7912 28.1863 19.0338 28.5 18.2441 28.5C17.4546 28.5 16.6974 28.185 16.1391 27.6267C15.5808 27.0684 15.2671 26.3112 15.2671 25.5217M21.2224 25.5217C21.2224 24.732 20.908 23.9753 20.3496 23.4169C19.7912 22.8584 19.0338 22.5447 18.2441 22.5447C17.4546 22.5447 16.6974 22.8584 16.1391 23.4167C15.5808 23.9749 15.2671 24.7321 15.2671 25.5217M15.2671 25.5217H3.80859M29.0718 7.47696H24.8316M18.8764 7.47696H3.80859M18.8764 7.47696C18.8764 6.68742 19.19 5.93022 19.7483 5.37193C20.3066 4.81364 21.0638 4.5 21.8533 4.5C22.2443 4.5 22.6314 4.577 22.9925 4.72661C23.3537 4.87621 23.6819 5.09549 23.9583 5.37193C24.2348 5.64837 24.4541 5.97654 24.6037 6.33772C24.7533 6.69891 24.8303 7.08602 24.8303 7.47696C24.8303 7.8679 24.7533 8.25501 24.6037 8.61619C24.4541 8.97737 24.2348 9.30555 23.9583 9.58198C23.6819 9.85842 23.3537 10.0777 22.9925 10.2273C22.6314 10.3769 22.2443 10.4539 21.8533 10.4539C21.0638 10.4539 20.3066 10.1403 19.7483 9.58198C19.19 9.02369 18.8764 8.26649 18.8764 7.47696Z" stroke="white" stroke-width="1.5" stroke-miterlimit="10" stroke-linecap="round"/>
</svg>
