<svg width="32" height="32" viewBox="0 0 32 32" fill="none" xmlns="http://www.w3.org/2000/svg">
<path d="M10.8867 14.7691L14.0792 17.9608L20.4634 11.5767" stroke="white" stroke-width="1.5" stroke-linecap="round" stroke-linejoin="round"/>
<path d="M15.6741 30.73L17.0784 30.1232C20.0229 28.8597 22.5656 26.8146 24.431 24.2094C26.2963 21.6042 27.4134 18.5383 27.661 15.3437L28.3475 6.53321C28.3587 6.16834 28.2443 5.81069 28.0234 5.52006C27.8025 5.22944 27.4885 5.02347 27.1339 4.93659L15.6741 2L4.21428 4.873C3.85986 4.95985 3.54598 5.16571 3.3251 5.45617C3.10422 5.74664 2.98971 6.10411 3.00073 6.46886L3.68718 15.2794C3.93471 18.4741 5.05167 21.5402 6.91707 24.1455C8.78246 26.7508 11.3252 28.796 14.2698 30.0596L15.6741 30.73Z" stroke="white" stroke-width="1.5" stroke-linecap="round" stroke-linejoin="round"/>
</svg>
