<svg width="30" height="35" viewBox="0 0 30 35" fill="none" xmlns="http://www.w3.org/2000/svg">
<path d="M3.40019 34.7866C2.83535 34.7855 2.28051 34.6333 1.79025 34.3451C0.686294 33.7023 0 32.4545 0 31.1V3.68677C0 2.3284 0.686294 1.08441 1.79025 0.441614C2.29219 0.145207 2.8624 -0.0072201 3.44127 0.000262824C4.02015 0.00774574 4.58645 0.174865 5.08097 0.484152L27.8823 14.5084C28.3575 14.8145 28.7492 15.2397 29.0208 15.744C29.2923 16.2483 29.4348 16.8151 29.4348 17.3915C29.4348 17.9678 29.2923 18.5347 29.0208 19.039C28.7492 19.5433 28.3575 19.9684 27.8823 20.2746L5.07729 34.3026C4.57121 34.6169 3.99156 34.7842 3.40019 34.7866Z" fill="white"/>
</svg>
