<svg width="9" height="15" viewBox="0 0 9 15" fill="none" xmlns="http://www.w3.org/2000/svg">
<path d="M1.11426 0.25C1.34319 0.250082 1.56268 0.341092 1.72461 0.50293L7.86133 6.63867H7.86035C7.94054 6.71877 8.0044 6.81428 8.04785 6.91895C8.09131 7.02379 8.11426 7.13651 8.11426 7.25C8.11426 7.36349 8.09131 7.47621 8.04785 7.58105C8.00441 7.68568 7.94049 7.78028 7.86035 7.86035L1.72461 13.9971C1.64442 14.0772 1.54907 14.1412 1.44434 14.1846C1.33971 14.2279 1.2275 14.25 1.11426 14.25C1.0008 14.25 0.888016 14.228 0.783203 14.1846C0.678388 14.1412 0.583156 14.0773 0.50293 13.9971C0.422705 13.9168 0.358847 13.8216 0.31543 13.7168C0.272015 13.612 0.25 13.4992 0.25 13.3857C0.250041 13.2725 0.272137 13.1603 0.31543 13.0557C0.358815 12.9509 0.422788 12.8556 0.50293 12.7754L6.02832 7.25L0.50293 1.72461C0.341092 1.56268 0.250082 1.34319 0.25 1.11426C0.25 0.885125 0.340908 0.664951 0.50293 0.50293C0.664951 0.340908 0.885125 0.25 1.11426 0.25Z" fill="#9BA2AE" stroke="#9BA2AE" stroke-width="0.5"/>
</svg>
