<svg width="24" height="24" viewBox="0 0 24 24" fill="none" xmlns="http://www.w3.org/2000/svg">
<path d="M21.75 4.34961C21.9886 4.34961 22.218 4.44463 22.3867 4.61328C22.5555 4.78206 22.6504 5.01131 22.6504 5.25V11.25C22.6504 11.4887 22.5555 11.7179 22.3867 11.8867C22.218 12.0554 21.9886 12.1504 21.75 12.1504C21.5116 12.1503 21.2829 12.0552 21.1143 11.8867C20.9455 11.7179 20.8506 11.4887 20.8506 11.25V7.42188L13.3867 14.8867C13.3032 14.9703 13.2039 15.0368 13.0947 15.082C12.9856 15.1272 12.8682 15.1504 12.75 15.1504C12.632 15.1503 12.5153 15.1272 12.4062 15.082C12.297 15.0367 12.1969 14.9704 12.1133 14.8867L9 11.7715L2.88672 17.8867C2.71788 18.0554 2.48871 18.1504 2.25 18.1504C2.01134 18.1503 1.78204 18.0555 1.61328 17.8867C1.44455 17.7179 1.34961 17.4887 1.34961 17.25C1.34961 17.0113 1.44455 16.7821 1.61328 16.6133L8.36328 9.86328C8.44687 9.7796 8.54699 9.71326 8.65625 9.66797C8.76526 9.62285 8.88202 9.59966 9 9.59961C9.11816 9.59961 9.23556 9.62276 9.34473 9.66797C9.45387 9.71321 9.55319 9.77973 9.63672 9.86328L12.75 12.9775L19.5771 6.15039H15.75C15.5116 6.15028 15.2829 6.05523 15.1143 5.88672C14.9455 5.71794 14.8506 5.48869 14.8506 5.25C14.8506 5.01131 14.9455 4.78206 15.1143 4.61328C15.2829 4.44477 15.5116 4.34972 15.75 4.34961H21.75Z" fill="white" stroke="white" stroke-width="0.3"/>
</svg>
